<?xml version="1.0" encoding="UTF-8" standalone="no"?>
<!DOCTYPE svg PUBLIC "-//W3C//DTD SVG 1.1//EN"
 "http://www.w3.org/Graphics/SVG/1.1/DTD/svg11.dtd">
<!-- Generated by graphviz version 2.47.3 (20210619.1520)
 -->
<!-- Title: dependencies Pages: 1 -->
<svg width="1094pt" height="247pt"
 viewBox="0.00 0.00 1094.00 246.80" xmlns="http://www.w3.org/2000/svg" xmlns:xlink="http://www.w3.org/1999/xlink">
<g id="graph0" class="graph" transform="scale(1 1) rotate(0) translate(4 242.8)">
<title>dependencies</title>
<polygon fill="white" stroke="transparent" points="-4,4 -4,-242.8 1090,-242.8 1090,4 -4,4"/>
<text text-anchor="middle" x="543" y="-8.2" font-family="sans-serif" font-size="14.00">dependencies</text>
<g id="clust1" class="cluster">
<title>cluster_AppModule</title>
<polygon fill="none" stroke="black" stroke-dasharray="1,5" points="8,-32.8 8,-230.8 1078,-230.8 1078,-32.8 8,-32.8"/>
</g>
<g id="clust11" class="cluster">
<title>cluster_AppModule_bootstrap</title>
<polygon fill="none" stroke="black" points="516,-170.8 516,-222.8 640,-222.8 640,-170.8 516,-170.8"/>
</g>
<g id="clust9" class="cluster">
<title>cluster_AppModule_imports</title>
<polygon fill="none" stroke="black" points="926,-40.8 926,-92.8 1070,-92.8 1070,-40.8 926,-40.8"/>
</g>
<g id="clust2" class="cluster">
<title>cluster_AppModule_declarations</title>
<polygon fill="none" stroke="black" points="16,-40.8 16,-92.8 918,-92.8 918,-40.8 16,-40.8"/>
</g>
<!-- AppComponent -->
<g id="node1" class="node">
<title>AppComponent</title>
<polygon fill="#ffffb3" stroke="black" points="909.94,-84.8 804.06,-84.8 804.06,-48.8 909.94,-48.8 909.94,-84.8"/>
<text text-anchor="middle" x="857" y="-62.6" font-family="Times,serif" font-size="14.00">AppComponent</text>
</g>
<!-- AppModule -->
<g id="node7" class="node">
<title>AppModule</title>
<polygon fill="#8dd3c7" stroke="black" points="619.66,-149.8 616.66,-153.8 595.66,-153.8 592.66,-149.8 536.34,-149.8 536.34,-113.8 619.66,-113.8 619.66,-149.8"/>
<text text-anchor="middle" x="578" y="-127.6" font-family="Times,serif" font-size="14.00">AppModule</text>
</g>
<!-- AppComponent&#45;&gt;AppModule -->
<g id="edge1" class="edge">
<title>AppComponent&#45;&gt;AppModule</title>
<path fill="none" stroke="black" d="M857,-84.91C857,-104.14 857,-131.8 857,-131.8 857,-131.8 629.77,-131.8 629.77,-131.8"/>
<polygon fill="black" stroke="black" points="629.77,-128.3 619.77,-131.8 629.77,-135.3 629.77,-128.3"/>
</g>
<!-- MapComponent -->
<g id="node2" class="node">
<title>MapComponent</title>
<polygon fill="#ffffb3" stroke="black" points="786.49,-84.8 679.51,-84.8 679.51,-48.8 786.49,-48.8 786.49,-84.8"/>
<text text-anchor="middle" x="733" y="-62.6" font-family="Times,serif" font-size="14.00">MapComponent</text>
</g>
<!-- MapComponent&#45;&gt;AppModule -->
<g id="edge2" class="edge">
<title>MapComponent&#45;&gt;AppModule</title>
<path fill="none" stroke="black" d="M733,-84.83C733,-101.2 733,-122.8 733,-122.8 733,-122.8 629.95,-122.8 629.95,-122.8"/>
<polygon fill="black" stroke="black" points="629.95,-119.3 619.95,-122.8 629.95,-126.3 629.95,-119.3"/>
</g>
<!-- MapDashboardComponent -->
<g id="node3" class="node">
<title>MapDashboardComponent</title>
<polygon fill="#ffffb3" stroke="black" points="661.63,-84.8 494.37,-84.8 494.37,-48.8 661.63,-48.8 661.63,-84.8"/>
<text text-anchor="middle" x="578" y="-62.6" font-family="Times,serif" font-size="14.00">MapDashboardComponent</text>
</g>
<!-- MapDashboardComponent&#45;&gt;AppModule -->
<g id="edge3" class="edge">
<title>MapDashboardComponent&#45;&gt;AppModule</title>
<path fill="none" stroke="black" d="M578,-84.91C578,-84.91 578,-103.79 578,-103.79"/>
<polygon fill="black" stroke="black" points="574.5,-103.79 578,-113.79 581.5,-103.79 574.5,-103.79"/>
</g>
<!-- MapItemComponent -->
<g id="node4" class="node">
<title>MapItemComponent</title>
<polygon fill="#ffffb3" stroke="black" points="476.15,-84.8 343.85,-84.8 343.85,-48.8 476.15,-48.8 476.15,-84.8"/>
<text text-anchor="middle" x="410" y="-62.6" font-family="Times,serif" font-size="14.00">MapItemComponent</text>
</g>
<!-- MapItemComponent&#45;&gt;AppModule -->
<g id="edge4" class="edge">
<title>MapItemComponent&#45;&gt;AppModule</title>
<path fill="none" stroke="black" d="M410,-84.83C410,-101.2 410,-122.8 410,-122.8 410,-122.8 526.04,-122.8 526.04,-122.8"/>
<polygon fill="black" stroke="black" points="526.04,-126.3 536.04,-122.8 526.04,-119.3 526.04,-126.3"/>
</g>
<!-- MapNodeComponent -->
<g id="node5" class="node">
<title>MapNodeComponent</title>
<polygon fill="#ffffb3" stroke="black" points="325.81,-84.8 188.19,-84.8 188.19,-48.8 325.81,-48.8 325.81,-84.8"/>
<text text-anchor="middle" x="257" y="-62.6" font-family="Times,serif" font-size="14.00">MapNodeComponent</text>
</g>
<!-- MapNodeComponent&#45;&gt;AppModule -->
<g id="edge5" class="edge">
<title>MapNodeComponent&#45;&gt;AppModule</title>
<path fill="none" stroke="black" d="M257,-84.91C257,-104.14 257,-131.8 257,-131.8 257,-131.8 526.03,-131.8 526.03,-131.8"/>
<polygon fill="black" stroke="black" points="526.03,-135.3 536.03,-131.8 526.03,-128.3 526.03,-135.3"/>
</g>
<!-- QuokkerizeComponent -->
<g id="node6" class="node">
<title>QuokkerizeComponent</title>
<polygon fill="#ffffb3" stroke="black" points="170.13,-84.8 23.87,-84.8 23.87,-48.8 170.13,-48.8 170.13,-84.8"/>
<text text-anchor="middle" x="97" y="-62.6" font-family="Times,serif" font-size="14.00">QuokkerizeComponent</text>
</g>
<!-- QuokkerizeComponent&#45;&gt;AppModule -->
<g id="edge6" class="edge">
<title>QuokkerizeComponent&#45;&gt;AppModule</title>
<path fill="none" stroke="black" d="M97,-85.09C97,-107.01 97,-140.8 97,-140.8 97,-140.8 526.16,-140.8 526.16,-140.8"/>
<polygon fill="black" stroke="black" points="526.16,-144.3 536.16,-140.8 526.16,-137.3 526.16,-144.3"/>
</g>
<!-- AppComponent  -->
<g id="node9" class="node">
<title>AppComponent </title>
<polygon fill="#80b1d3" stroke="black" points="632.44,-214.8 523.56,-214.8 523.56,-178.8 632.44,-178.8 632.44,-214.8"/>
<text text-anchor="middle" x="578" y="-192.6" font-family="Times,serif" font-size="14.00">AppComponent </text>
</g>
<!-- AppModule&#45;&gt;AppComponent  -->
<g id="edge8" class="edge">
<title>AppModule&#45;&gt;AppComponent </title>
<path fill="none" stroke="black" stroke-dasharray="1,5" d="M578,-149.91C578,-149.91 578,-168.79 578,-168.79"/>
<polygon fill="black" stroke="black" points="574.5,-168.79 578,-178.79 581.5,-168.79 574.5,-168.79"/>
</g>
<!-- AppRoutingModule -->
<g id="node8" class="node">
<title>AppRoutingModule</title>
<polygon fill="#8dd3c7" stroke="black" points="1062.27,-84.8 1059.27,-88.8 1038.27,-88.8 1035.27,-84.8 933.73,-84.8 933.73,-48.8 1062.27,-48.8 1062.27,-84.8"/>
<text text-anchor="middle" x="998" y="-62.6" font-family="Times,serif" font-size="14.00">AppRoutingModule</text>
</g>
<!-- AppRoutingModule&#45;&gt;AppModule -->
<g id="edge7" class="edge">
<title>AppRoutingModule&#45;&gt;AppModule</title>
<path fill="none" stroke="black" d="M998,-85.09C998,-107.01 998,-140.8 998,-140.8 998,-140.8 629.81,-140.8 629.81,-140.8"/>
<polygon fill="black" stroke="black" points="629.81,-137.3 619.81,-140.8 629.81,-144.3 629.81,-137.3"/>
</g>
</g>
</svg>
