<?xml version="1.0" encoding="UTF-8" standalone="no"?>
<!DOCTYPE svg PUBLIC "-//W3C//DTD SVG 1.1//EN"
 "http://www.w3.org/Graphics/SVG/1.1/DTD/svg11.dtd">
<!-- Generated by graphviz version 2.47.3 (20210619.1520)
 -->
<!-- Title: dependencies Pages: 1 -->
<svg width="1094pt" height="247pt"
 viewBox="0.00 0.00 1094.00 246.80" xmlns="http://www.w3.org/2000/svg" xmlns:xlink="http://www.w3.org/1999/xlink">
<g id="graph0" class="graph" transform="scale(1 1) rotate(0) translate(4 242.8)">
<title>dependencies</title>
<polygon fill="white" stroke="transparent" points="-4,4 -4,-242.8 1090,-242.8 1090,4 -4,4"/>
<text text-anchor="middle" x="543" y="-8.2" font-family="sans-serif" font-size="14.00">dependencies</text>
<g id="clust1" class="cluster">
<title>cluster_AppModule</title>
<polygon fill="none" stroke="black" stroke-dasharray="1,5" points="8,-32.8 8,-230.8 1078,-230.8 1078,-32.8 8,-32.8"/>
</g>
<g id="clust2" class="cluster">
<title>cluster_AppModule_declarations</title>
<polygon fill="none" stroke="black" points="168,-40.8 168,-92.8 1070,-92.8 1070,-40.8 168,-40.8"/>
</g>
<g id="clust9" class="cluster">
<title>cluster_AppModule_imports</title>
<polygon fill="none" stroke="black" points="16,-40.8 16,-92.8 160,-92.8 160,-40.8 16,-40.8"/>
</g>
<g id="clust11" class="cluster">
<title>cluster_AppModule_bootstrap</title>
<polygon fill="none" stroke="black" points="500,-170.8 500,-222.8 624,-222.8 624,-170.8 500,-170.8"/>
</g>
<!-- AppComponent -->
<g id="node1" class="node">
<title>AppComponent</title>
<polygon fill="#ffffb3" stroke="black" points="1061.94,-84.8 956.06,-84.8 956.06,-48.8 1061.94,-48.8 1061.94,-84.8"/>
<text text-anchor="middle" x="1009" y="-62.6" font-family="Times,serif" font-size="14.00">AppComponent</text>
</g>
<!-- AppModule -->
<g id="node7" class="node">
<title>AppModule</title>
<polygon fill="#8dd3c7" stroke="black" points="603.66,-149.8 600.66,-153.8 579.66,-153.8 576.66,-149.8 520.34,-149.8 520.34,-113.8 603.66,-113.8 603.66,-149.8"/>
<text text-anchor="middle" x="562" y="-127.6" font-family="Times,serif" font-size="14.00">AppModule</text>
</g>
<!-- AppComponent&#45;&gt;AppModule -->
<g id="edge1" class="edge">
<title>AppComponent&#45;&gt;AppModule</title>
<path fill="none" stroke="black" d="M1009,-85.09C1009,-107.01 1009,-140.8 1009,-140.8 1009,-140.8 614.05,-140.8 614.05,-140.8"/>
<polygon fill="black" stroke="black" points="614.05,-137.3 604.05,-140.8 614.05,-144.3 614.05,-137.3"/>
</g>
<!-- MapComponent -->
<g id="node2" class="node">
<title>MapComponent</title>
<polygon fill="#ffffb3" stroke="black" points="938.49,-84.8 831.51,-84.8 831.51,-48.8 938.49,-48.8 938.49,-84.8"/>
<text text-anchor="middle" x="885" y="-62.6" font-family="Times,serif" font-size="14.00">MapComponent</text>
</g>
<!-- MapComponent&#45;&gt;AppModule -->
<g id="edge2" class="edge">
<title>MapComponent&#45;&gt;AppModule</title>
<path fill="none" stroke="black" d="M885,-84.91C885,-104.14 885,-131.8 885,-131.8 885,-131.8 613.9,-131.8 613.9,-131.8"/>
<polygon fill="black" stroke="black" points="613.9,-128.3 603.9,-131.8 613.9,-135.3 613.9,-128.3"/>
</g>
<!-- MapDashboardComponent -->
<g id="node3" class="node">
<title>MapDashboardComponent</title>
<polygon fill="#ffffb3" stroke="black" points="813.63,-84.8 646.37,-84.8 646.37,-48.8 813.63,-48.8 813.63,-84.8"/>
<text text-anchor="middle" x="730" y="-62.6" font-family="Times,serif" font-size="14.00">MapDashboardComponent</text>
</g>
<!-- MapDashboardComponent&#45;&gt;AppModule -->
<g id="edge3" class="edge">
<title>MapDashboardComponent&#45;&gt;AppModule</title>
<path fill="none" stroke="black" d="M730,-84.83C730,-101.2 730,-122.8 730,-122.8 730,-122.8 613.96,-122.8 613.96,-122.8"/>
<polygon fill="black" stroke="black" points="613.96,-119.3 603.96,-122.8 613.96,-126.3 613.96,-119.3"/>
</g>
<!-- MapItemComponent -->
<g id="node4" class="node">
<title>MapItemComponent</title>
<polygon fill="#ffffb3" stroke="black" points="628.15,-84.8 495.85,-84.8 495.85,-48.8 628.15,-48.8 628.15,-84.8"/>
<text text-anchor="middle" x="562" y="-62.6" font-family="Times,serif" font-size="14.00">MapItemComponent</text>
</g>
<!-- MapItemComponent&#45;&gt;AppModule -->
<g id="edge4" class="edge">
<title>MapItemComponent&#45;&gt;AppModule</title>
<path fill="none" stroke="black" d="M562,-84.91C562,-84.91 562,-103.79 562,-103.79"/>
<polygon fill="black" stroke="black" points="558.5,-103.79 562,-113.79 565.5,-103.79 558.5,-103.79"/>
</g>
<!-- MapNodeComponent -->
<g id="node5" class="node">
<title>MapNodeComponent</title>
<polygon fill="#ffffb3" stroke="black" points="477.81,-84.8 340.19,-84.8 340.19,-48.8 477.81,-48.8 477.81,-84.8"/>
<text text-anchor="middle" x="409" y="-62.6" font-family="Times,serif" font-size="14.00">MapNodeComponent</text>
</g>
<!-- MapNodeComponent&#45;&gt;AppModule -->
<g id="edge5" class="edge">
<title>MapNodeComponent&#45;&gt;AppModule</title>
<path fill="none" stroke="black" d="M409,-84.83C409,-101.2 409,-122.8 409,-122.8 409,-122.8 510.19,-122.8 510.19,-122.8"/>
<polygon fill="black" stroke="black" points="510.19,-126.3 520.19,-122.8 510.19,-119.3 510.19,-126.3"/>
</g>
<!-- QuokkerizeComponent -->
<g id="node6" class="node">
<title>QuokkerizeComponent</title>
<polygon fill="#ffffb3" stroke="black" points="322.13,-84.8 175.87,-84.8 175.87,-48.8 322.13,-48.8 322.13,-84.8"/>
<text text-anchor="middle" x="249" y="-62.6" font-family="Times,serif" font-size="14.00">QuokkerizeComponent</text>
</g>
<!-- QuokkerizeComponent&#45;&gt;AppModule -->
<g id="edge6" class="edge">
<title>QuokkerizeComponent&#45;&gt;AppModule</title>
<path fill="none" stroke="black" d="M249,-84.91C249,-104.14 249,-131.8 249,-131.8 249,-131.8 510.11,-131.8 510.11,-131.8"/>
<polygon fill="black" stroke="black" points="510.11,-135.3 520.11,-131.8 510.11,-128.3 510.11,-135.3"/>
</g>
<!-- AppComponent  -->
<g id="node9" class="node">
<title>AppComponent </title>
<polygon fill="#80b1d3" stroke="black" points="616.44,-214.8 507.56,-214.8 507.56,-178.8 616.44,-178.8 616.44,-214.8"/>
<text text-anchor="middle" x="562" y="-192.6" font-family="Times,serif" font-size="14.00">AppComponent </text>
</g>
<!-- AppModule&#45;&gt;AppComponent  -->
<g id="edge8" class="edge">
<title>AppModule&#45;&gt;AppComponent </title>
<path fill="none" stroke="black" stroke-dasharray="1,5" d="M562,-149.91C562,-149.91 562,-168.79 562,-168.79"/>
<polygon fill="black" stroke="black" points="558.5,-168.79 562,-178.79 565.5,-168.79 558.5,-168.79"/>
</g>
<!-- AppRoutingModule -->
<g id="node8" class="node">
<title>AppRoutingModule</title>
<polygon fill="#8dd3c7" stroke="black" points="152.27,-84.8 149.27,-88.8 128.27,-88.8 125.27,-84.8 23.73,-84.8 23.73,-48.8 152.27,-48.8 152.27,-84.8"/>
<text text-anchor="middle" x="88" y="-62.6" font-family="Times,serif" font-size="14.00">AppRoutingModule</text>
</g>
<!-- AppRoutingModule&#45;&gt;AppModule -->
<g id="edge7" class="edge">
<title>AppRoutingModule&#45;&gt;AppModule</title>
<path fill="none" stroke="black" d="M88,-85.09C88,-107.01 88,-140.8 88,-140.8 88,-140.8 509.94,-140.8 509.94,-140.8"/>
<polygon fill="black" stroke="black" points="509.94,-144.3 519.94,-140.8 509.94,-137.3 509.94,-144.3"/>
</g>
</g>
</svg>
